<?xml version="1.0" encoding="UTF-8"?>
<!DOCTYPE svg PUBLIC "-//W3C//DTD SVG 1.1//EN" "http://www.w3.org/Graphics/SVG/1.1/DTD/svg11.dtd">
<!-- Creator: CorelDRAW X7 -->
<svg xmlns="http://www.w3.org/2000/svg" xml:space="preserve" width="100px" height="100px" version="1.1" style="shape-rendering:geometricPrecision; text-rendering:geometricPrecision; image-rendering:optimizeQuality; fill-rule:evenodd; clip-rule:evenodd"
viewBox="0 0 100 100"
 xmlns:xlink="http://www.w3.org/1999/xlink">
 <defs>
  <style type="text/css">
   <![CDATA[
    .fil0 {fill:#8F0029}
   ]]>
  </style>
 </defs>
 <g id="Layer_x0020_1">
  <metadata id="CorelCorpID_0Corel-Layer"/>
  <path id="iconmonstr-github-1.svg" class="fil0" d="M50 13c-21,0 -37,17 -37,38 0,16 10,31 25,36 2,0 3,-1 3,-2l0 -7c-11,2 -13,-5 -13,-5 -2,-4 -4,-5 -4,-5 -4,-3 0,-2 0,-2 4,0 6,3 6,3 3,6 9,4 11,4 0,-3 1,-5 2,-5 -8,-1 -17,-5 -17,-19 0,-4 2,-7 4,-10 0,-1 -2,-5 0,-10 0,0 3,-1 11,4 3,-1 6,-1 9,-1 3,0 6,0 9,1 8,-5 11,-4 11,-4 2,5 0,9 0,10 2,3 4,6 4,10 0,14 -9,18 -17,18 1,2 2,4 2,7l0 11c0,1 1,2 3,2 15,-5 25,-20 25,-36 0,-21 -16,-38 -37,-38l0 0z"/>
 </g>
</svg>
