<?xml version="1.0" encoding="UTF-8"?>
<!DOCTYPE svg PUBLIC "-//W3C//DTD SVG 1.1//EN" "http://www.w3.org/Graphics/SVG/1.1/DTD/svg11.dtd">
<!-- Creator: CorelDRAW X7 -->
<svg xmlns="http://www.w3.org/2000/svg" xml:space="preserve" width="100px" height="100px" version="1.1" style="shape-rendering:geometricPrecision; text-rendering:geometricPrecision; image-rendering:optimizeQuality; fill-rule:evenodd; clip-rule:evenodd"
viewBox="0 0 100 100"
 xmlns:xlink="http://www.w3.org/1999/xlink">
 <defs>
  <style type="text/css">
   <![CDATA[
    .fil0 {fill:#00FFD9}
   ]]>
  </style>
 </defs>
 <g id="Layer_x0020_1">
  <metadata id="CorelCorpID_0Corel-Layer"/>
  <path id="iconmonstr-gmail-1.svg" class="fil0" d="M82 77l-64 0c-3,0 -6,-3 -6,-6l0 -42c0,-3 3,-6 6,-6l64 0c3,0 6,3 6,6l0 42c0,3 -3,6 -6,6zm-32 -19l-29 -21 0 36 58 0 0 -36 -29 21zm28 -31l-56 0 28 19c0,0 20,-14 28,-19z"/>
 </g>
</svg>
