<?xml version="1.0" encoding="UTF-8"?>
<!DOCTYPE svg PUBLIC "-//W3C//DTD SVG 1.1//EN" "http://www.w3.org/Graphics/SVG/1.1/DTD/svg11.dtd">
<!-- Creator: CorelDRAW X7 -->
<svg xmlns="http://www.w3.org/2000/svg" xml:space="preserve" width="100px" height="100px" version="1.1" style="shape-rendering:geometricPrecision; text-rendering:geometricPrecision; image-rendering:optimizeQuality; fill-rule:evenodd; clip-rule:evenodd"
viewBox="0 0 100 100"
 xmlns:xlink="http://www.w3.org/1999/xlink">
 <defs>
  <style type="text/css">
   <![CDATA[
    .fil0 {fill:#00FFD9}
   ]]>
  </style>
 </defs>
 <g id="Layer_x0020_1">
  <metadata id="CorelCorpID_0Corel-Layer"/>
  <path id="iconmonstr-twitter-1.svg" class="fil0" d="M88 27c-3,1 -6,2 -9,2 3,-2 5,-5 6,-8 -3,1 -6,3 -9,3 -3,-3 -7,-4 -12,-4 -10,0 -17,9 -15,18 -12,0 -24,-6 -31,-16 -4,7 -2,16 4,21 -2,0 -4,-1 -6,-2 -1,7 4,14 12,15 -2,1 -5,1 -7,1 2,6 8,10 14,10 -6,5 -14,8 -23,7 7,4 15,6 24,6 29,0 45,-24 44,-45 3,-2 5,-5 8,-8l0 0z"/>
 </g>
</svg>
