<?xml version="1.0" encoding="UTF-8"?>
<!DOCTYPE svg PUBLIC "-//W3C//DTD SVG 1.1//EN" "http://www.w3.org/Graphics/SVG/1.1/DTD/svg11.dtd">
<!-- Creator: CorelDRAW X7 -->
<svg xmlns="http://www.w3.org/2000/svg" xml:space="preserve" width="100px" height="100px" version="1.1" style="shape-rendering:geometricPrecision; text-rendering:geometricPrecision; image-rendering:optimizeQuality; fill-rule:evenodd; clip-rule:evenodd"
viewBox="0 0 100 100"
 xmlns:xlink="http://www.w3.org/1999/xlink">
 <defs>
  <style type="text/css">
   <![CDATA[
    .fil0 {fill:#8F0029}
   ]]>
  </style>
 </defs>
 <g id="Layer_x0020_1">
  <metadata id="CorelCorpID_0Corel-Layer"/>
  <path id="iconmonstr-linkedin-3.svg" class="fil0" d="M72 12l-44 0c-9,0 -16,7 -16,16l0 44c0,9 7,16 16,16l44 0c9,0 16,-7 16,-16l0 -44c0,-9 -7,-16 -16,-16zm-34 60l-10 0 0 -34 10 0 0 34zm-5 -38c-3,0 -6,-3 -6,-6 0,-3 3,-5 6,-5 3,0 5,2 5,5 0,3 -2,6 -5,6zm42 38l-9 0 0 -18c0,-10 -13,-9 -13,0l0 18 -9 0 0 -34 9 0 0 5c4,-8 22,-9 22,8l0 21z"/>
 </g>
</svg>
