<?xml version="1.0" encoding="UTF-8"?>
<!DOCTYPE svg PUBLIC "-//W3C//DTD SVG 1.1//EN" "http://www.w3.org/Graphics/SVG/1.1/DTD/svg11.dtd">
<!-- Creator: CorelDRAW X7 -->
<svg xmlns="http://www.w3.org/2000/svg" xml:space="preserve" width="100px" height="100px" version="1.1" style="shape-rendering:geometricPrecision; text-rendering:geometricPrecision; image-rendering:optimizeQuality; fill-rule:evenodd; clip-rule:evenodd"
viewBox="0 0 100 100"
 xmlns:xlink="http://www.w3.org/1999/xlink">
 <defs>
  <style type="text/css">
   <![CDATA[
    .fil0 {fill:#8F0029}
   ]]>
  </style>
 </defs>
 <g id="Layer_x0020_1">
  <metadata id="CorelCorpID_0Corel-Layer"/>
  <path class="fil0" d="M81 34l-22 0 0 -6 22 0 0 6zm6 32c-2,4 -7,9 -16,9 -10,0 -18,-5 -18,-18 0,-12 8,-18 17,-18 10,0 16,5 17,14 0,1 1,3 0,6l-25 0c1,10 11,11 15,7l10 0zm-24 -13l15 0c0,-5 -3,-7 -8,-7 -4,0 -7,3 -7,7zm-30 22l-21 0 0 -47 22 0c17,0 18,17 9,22 11,4 11,25 -10,25zm-11 -28l11 0c8,0 9,-10 -1,-10l-10 1 0 9 0 0zm10 9l-10 0 0 10 10 0c10,0 9,-10 0,-10l0 0z"/>
 </g>
</svg>
